REM Ripping Tool: trurip

FILE "Shadow of the Beast (1992)(NEC - Turbo Technologies)(US).img" BINARY
  TRACK 01 AUDIO
    INDEX 01 00:00:00
  TRACK 02 MODE1/2352
    INDEX 00 00:44:65
    INDEX 01 00:47:65
  TRACK 03 AUDIO
    INDEX 00 01:48:22
    INDEX 01 01:50:22
  TRACK 04 AUDIO
    INDEX 01 07:05:05
  TRACK 05 AUDIO
    INDEX 01 11:15:22
  TRACK 06 AUDIO
    INDEX 01 18:02:29
  TRACK 07 AUDIO
    INDEX 01 24:56:20
  TRACK 08 AUDIO
    INDEX 01 31:41:38
  TRACK 09 AUDIO
    INDEX 01 38:36:16
  TRACK 10 MODE1/2352
    INDEX 00 44:49:59
    INDEX 01 44:52:59

REM DISC HASHES
REM CRC32 : 0280b591
REM MD5   : 0606e44a1f9316404784a904cd955427
REM SHA1  : 60cbd267095e3059cdb57cd2ba21f58ad84454d2

REM Gap Append Method: Prev [crc32]
REM Trk 01: a51ea750
REM Trk 02: d218b761
REM Trk 03: 72692892
REM Trk 04: 07f12516
REM Trk 05: f4dbb233
REM Trk 06: e5561988
REM Trk 07: 894858bf
REM Trk 08: a45fcabc
REM Trk 09: 379ee0a2
REM Trk 10: a2d9a186

REM Gap Append Method: Prev [md5]
REM Trk 01: 1d209630c413de2b731263be30f395ed
REM Trk 02: db24c95196568a6faf1591af9b5700ef
REM Trk 03: b3669a9b3eae19bbb7dfefcabb766291
REM Trk 04: e1d5748e589508c9aad12e282726b68b
REM Trk 05: cc77fd08e199f837879f670a66cda249
REM Trk 06: 38b4e0bc1446f7f8b954c20ae4b83516
REM Trk 07: 125134f252260f5411f4d8a05d9594d3
REM Trk 08: ea971b4915148663875e3ed87b3e9a4b
REM Trk 09: 6d9dc644b31036c22c6e0b3e6ffe2f3f
REM Trk 10: 4bfb71cf002b8c469ba85094814c6be3

REM Gap Append Method: Prev [sha1]
REM Trk 01: a47ed438223342037fc47e98e602a234cd3c7178
REM Trk 02: a247d0daffee03db6d74dc05c188a8ea183feb26
REM Trk 03: 68e6cb1e8a03a96252ef7a43d41294696fe63bba
REM Trk 04: a625ca4449307477eddc902119ed57664beb8b2f
REM Trk 05: 4dae8bc6ab832076d9e020a72c0264f33c394a31
REM Trk 06: 62f04d7dc123e696a45b07d9dc18268162cc5be0
REM Trk 07: 985fd00f77805e11047e6c43ebc14220bff6c449
REM Trk 08: c27ef963a248046e0ab9f45b43392ad3feac72aa
REM Trk 09: a0c4ea1d5859b05cd0fe1280281710e0c21199a8
REM Trk 10: 5a44a4c1d38e8698ee8d7c5c5ea5e22f9ea18344

REM Gap Append Method: None [crc32]
REM Trk 01: 16841024
REM Trk 02: 6778234b
REM Trk 03: 72692892
REM Trk 04: 07f12516
REM Trk 05: f4dbb233
REM Trk 06: e5561988
REM Trk 07: 894858bf
REM Trk 08: a45fcabc
REM Trk 09: 01f685ee
REM Trk 10: a2d9a186
REM Gap 02: 16e86594
REM Gap 03: 7abe247f
REM Gap 10: 5b993b9e

REM Gap Append Method: None [md5]
REM Trk 01: c7ec65c2c430ec5e01ea1e781b5fb933
REM Trk 02: 4922fc1ee3b076029e93ca4471aaf612
REM Trk 03: b3669a9b3eae19bbb7dfefcabb766291
REM Trk 04: e1d5748e589508c9aad12e282726b68b
REM Trk 05: cc77fd08e199f837879f670a66cda249
REM Trk 06: 38b4e0bc1446f7f8b954c20ae4b83516
REM Trk 07: 125134f252260f5411f4d8a05d9594d3
REM Trk 08: ea971b4915148663875e3ed87b3e9a4b
REM Trk 09: 5305fb2c2f5ad914bde8f9d470738133
REM Trk 10: 4bfb71cf002b8c469ba85094814c6be3
REM Gap 02: fbd314ec9876f082e173fbb5baf092aa
REM Gap 03: 9df204fbc98bb8965081cb30a89715fc
REM Gap 10: 9b61cadd002b703750b3aa453a0af274

REM Gap Append Method: None [sha1]
REM Trk 01: 2e5a9235aaa4c04baefb8a5104fa2c2977869191
REM Trk 02: 3b824aa76184212c301f19273271a0e0142559c5
REM Trk 03: 68e6cb1e8a03a96252ef7a43d41294696fe63bba
REM Trk 04: a625ca4449307477eddc902119ed57664beb8b2f
REM Trk 05: 4dae8bc6ab832076d9e020a72c0264f33c394a31
REM Trk 06: 62f04d7dc123e696a45b07d9dc18268162cc5be0
REM Trk 07: 985fd00f77805e11047e6c43ebc14220bff6c449
REM Trk 08: c27ef963a248046e0ab9f45b43392ad3feac72aa
REM Trk 09: 9cf2079ff82589fcf649416a80bc08d9b38baf93
REM Trk 10: 5a44a4c1d38e8698ee8d7c5c5ea5e22f9ea18344
REM Gap 02: 08a9af7bae10b281a8edaad6e9ea6cd1646d0ce0
REM Gap 03: cbe29e0bd725ef1194f8c47619dd42078e841de2
REM Gap 10: 4362a6df4d4ff06667017188eb41977d896b1d78

REM Gap Append Method: Next [crc32]
REM Trk 01: 16841024
REM Trk 02: 41d74c5d
REM Trk 03: 80f90949
REM Trk 04: 07f12516
REM Trk 05: f4dbb233
REM Trk 06: e5561988
REM Trk 07: 894858bf
REM Trk 08: a45fcabc
REM Trk 09: 01f685ee
REM Trk 10: d61a491e

REM Gap Append Method: Next [md5]
REM Trk 01: c7ec65c2c430ec5e01ea1e781b5fb933
REM Trk 02: 1521cbc5fee0448c89a0d681cf9013ca
REM Trk 03: 47860c060cd21beb0da78a434b9c1973
REM Trk 04: e1d5748e589508c9aad12e282726b68b
REM Trk 05: cc77fd08e199f837879f670a66cda249
REM Trk 06: 38b4e0bc1446f7f8b954c20ae4b83516
REM Trk 07: 125134f252260f5411f4d8a05d9594d3
REM Trk 08: ea971b4915148663875e3ed87b3e9a4b
REM Trk 09: 5305fb2c2f5ad914bde8f9d470738133
REM Trk 10: 941294d5cab37121840f3007ec7c7516

REM Gap Append Method: Next [sha1]
REM Trk 01: 2e5a9235aaa4c04baefb8a5104fa2c2977869191
REM Trk 02: 6faf1f59b0cb279cae8ee559b4742c2356d0819d
REM Trk 03: 9ab1f710b84db1cc3ca6ab47727fb9ef505db607
REM Trk 04: a625ca4449307477eddc902119ed57664beb8b2f
REM Trk 05: 4dae8bc6ab832076d9e020a72c0264f33c394a31
REM Trk 06: 62f04d7dc123e696a45b07d9dc18268162cc5be0
REM Trk 07: 985fd00f77805e11047e6c43ebc14220bff6c449
REM Trk 08: c27ef963a248046e0ab9f45b43392ad3feac72aa
REM Trk 09: 9cf2079ff82589fcf649416a80bc08d9b38baf93
REM Trk 10: fb12b5a2f4230681ef1a1bbd37e78f903e543cb7

